HIERARCHY
ROOT hip
{
  OFFSET 0.00112043 5.09927 -9.65472
  CHANNELS 6 Xposition Yposition Zposition Zrotation Xrotation Yrotation
  JOINT abdomen
  {
    OFFSET 0 -1.186 -1.5018
    CHANNELS 3 Zrotation Xrotation Yrotation
    JOINT abdomen2
    {
      OFFSET 0 9.964 0.2134
      CHANNELS 3 Zrotation Xrotation Yrotation
      JOINT chest
      {
        OFFSET 0 13.134 -3.2573
        CHANNELS 3 Zrotation Xrotation Yrotation
        JOINT neck
        {
          OFFSET 0 20.686 -1.6905
          CHANNELS 3 Zrotation Xrotation Yrotation
          JOINT head
          {
            OFFSET 0 7.238 -0.1237
            CHANNELS 3 Zrotation Xrotation Yrotation
            End Site
            {
              OFFSET 0 0 0
            }
          }
        }
        JOINT lCollar
        {
          OFFSET 1.7069 20.075 5.0056
          CHANNELS 3 Zrotation Xrotation Yrotation
          JOINT lShldr
          {
            OFFSET 13.6458 -0.047 -4.849
            CHANNELS 3 Zrotation Xrotation Yrotation
            JOINT lForeArm
            {
              OFFSET 28.3255 -0.9759 2.2888
              CHANNELS 3 Zrotation Xrotation Yrotation
              JOINT lHand
              {
                OFFSET 22.1583 -0.53 10.8316
                CHANNELS 3 Zrotation Xrotation Yrotation
                JOINT lThumb1
                {
                  OFFSET 0.786 0.112 2.5817
                  CHANNELS 3 Zrotation Xrotation Yrotation
                  JOINT lThumb2
                  {
                    OFFSET 0.3601 -0.878 4.2331
                    CHANNELS 3 Zrotation Xrotation Yrotation
                    JOINT lThumb2_End
                    {
                      OFFSET 1.8127 -1.216 2.2227
                      CHANNELS 3 Zrotation Xrotation Yrotation
                      End Site
                      {
                        OFFSET 0.0181 -0.0122 0.0222
                      }
                    }
                  }
                }
                JOINT lCarpal1
                {
                  OFFSET 0.9571 1.114 1.7695
                  CHANNELS 3 Zrotation Xrotation Yrotation
                  JOINT lIndex1
                  {
                    OFFSET 4.1246 0.487 4.1451
                    CHANNELS 3 Zrotation Xrotation Yrotation
                    JOINT lIndex2
                    {
                      OFFSET 3.4052 -1.454 2.7682
                      CHANNELS 3 Zrotation Xrotation Yrotation
                      JOINT lIndex2_End
                      {
                        OFFSET 1.4531 -1.795 1.2713
                        CHANNELS 3 Zrotation Xrotation Yrotation
                        End Site
                        {
                          OFFSET 0.0145 -0.0179 0.0127
                        }
                      }
                    }
                  }
                  JOINT lMid1
                  {
                    OFFSET 5.6954 0.21 2.1184
                    CHANNELS 3 Zrotation Xrotation Yrotation
                    JOINT lMid2
                    {
                      OFFSET 3.9766 -1.54 2.3863
                      CHANNELS 3 Zrotation Xrotation Yrotation
                      JOINT lMid2_End
                      {
                        OFFSET 1.4042 -1.926 1.125
                        CHANNELS 3 Zrotation Xrotation Yrotation
                        End Site
                        {
                          OFFSET 0.014 -0.0193 0.0113
                        }
                      }
                    }
                  }
                }
                JOINT lCarpal2
                {
                  OFFSET 2.0956 0.66 -0.3894
                  CHANNELS 3 Zrotation Xrotation Yrotation
                  JOINT lRing1
                  {
                    OFFSET 5.0395 -0.09 2.4971
                    CHANNELS 3 Zrotation Xrotation Yrotation
                    JOINT lRing2
                    {
                      OFFSET 3.7921 -1.552 1.4806
                      CHANNELS 3 Zrotation Xrotation Yrotation
                      JOINT lRing2_End
                      {
                        OFFSET 1.4655 -1.808 0.9609
                        CHANNELS 3 Zrotation Xrotation Yrotation
                        End Site
                        {
                          OFFSET 0.0147 -0.0181 0.0096
                        }
                      }
                    }
                  }
                  JOINT lPinky1
                  {
                    OFFSET 4.9141 -1.269 0.3591
                    CHANNELS 3 Zrotation Xrotation Yrotation
                    JOINT lPinky2
                    {
                      OFFSET 3.1477 -1.685 0.8462
                      CHANNELS 3 Zrotation Xrotation Yrotation
                      JOINT lPinky2_End
                      {
                        OFFSET 0.8055 -1.585 0.7955
                        CHANNELS 3 Zrotation Xrotation Yrotation
                        End Site
                        {
                          OFFSET 0.0081 -0.0158 0.008
                        }
                      }
                    }
                  }
                }
              }
            }
          }
        }
        JOINT rCollar
        {
          OFFSET -1.7069 20.075 5.0056
          CHANNELS 3 Zrotation Xrotation Yrotation
          JOINT rShldr
          {
            OFFSET -13.6458 -0.047 -4.849
            CHANNELS 3 Zrotation Xrotation Yrotation
            JOINT rForeArm
            {
              OFFSET -28.3255 -0.9759 2.2888
              CHANNELS 3 Zrotation Xrotation Yrotation
              JOINT rHand
              {
                OFFSET -22.1583 -0.53 10.8316
                CHANNELS 3 Zrotation Xrotation Yrotation
                JOINT rThumb1
                {
                  OFFSET -0.786 0.112 2.5817
                  CHANNELS 3 Zrotation Xrotation Yrotation
                  JOINT rThumb2
                  {
                    OFFSET -0.3601 -0.878 4.2331
                    CHANNELS 3 Zrotation Xrotation Yrotation
                    JOINT rThumb2_End
                    {
                      OFFSET -1.8127 -1.216 2.2227
                      CHANNELS 3 Zrotation Xrotation Yrotation
                      End Site
                      {
                        OFFSET -0.0181 -0.0122 0.0222
                      }
                    }
                  }
                }
                JOINT rCarpal1
                {
                  OFFSET -0.9571 1.114 1.7695
                  CHANNELS 3 Zrotation Xrotation Yrotation
                  JOINT rIndex1
                  {
                    OFFSET -4.1246 0.487 4.1451
                    CHANNELS 3 Zrotation Xrotation Yrotation
                    JOINT rIndex2
                    {
                      OFFSET -3.4052 -1.454 2.7682
                      CHANNELS 3 Zrotation Xrotation Yrotation
                      JOINT rIndex2_End
                      {
                        OFFSET -1.4531 -1.795 1.2713
                        CHANNELS 3 Zrotation Xrotation Yrotation
                        End Site
                        {
                          OFFSET -0.0145 -0.018 0.0127
                        }
                      }
                    }
                  }
                  JOINT rMid1
                  {
                    OFFSET -5.6954 0.21 2.1184
                    CHANNELS 3 Zrotation Xrotation Yrotation
                    JOINT rMid2
                    {
                      OFFSET -3.9766 -1.54 2.3863
                      CHANNELS 3 Zrotation Xrotation Yrotation
                      JOINT rMid2_End
                      {
                        OFFSET -1.4042 -1.926 1.125
                        CHANNELS 3 Zrotation Xrotation Yrotation
                        End Site
                        {
                          OFFSET -0.014 -0.0193 0.0113
                        }
                      }
                    }
                  }
                }
                JOINT rCarpal2
                {
                  OFFSET -2.0956 0.66 -0.3894
                  CHANNELS 3 Zrotation Xrotation Yrotation
                  JOINT rRing1
                  {
                    OFFSET -5.0395 -0.09 2.4971
                    CHANNELS 3 Zrotation Xrotation Yrotation
                    JOINT rRing2
                    {
                      OFFSET -3.7921 -1.552 1.4806
                      CHANNELS 3 Zrotation Xrotation Yrotation
                      JOINT rRing2_End
                      {
                        OFFSET -1.4655 -1.808 0.9609
                        CHANNELS 3 Zrotation Xrotation Yrotation
                        End Site
                        {
                          OFFSET -0.0147 -0.0181 0.0096
                        }
                      }
                    }
                  }
                  JOINT rPinky1
                  {
                    OFFSET -4.9141 -1.269 0.3592
                    CHANNELS 3 Zrotation Xrotation Yrotation
                    JOINT rPinky2
                    {
                      OFFSET -3.1477 -1.685 0.8462
                      CHANNELS 3 Zrotation Xrotation Yrotation
                      JOINT rPinky2_End
                      {
                        OFFSET -0.8055 -1.585 0.7955
                        CHANNELS 3 Zrotation Xrotation Yrotation
                        End Site
                        {
                          OFFSET -0.0081 -0.0158 0.008
                        }
                      }
                    }
                  }
                }
              }
            }
          }
        }
      }
    }
  }
  JOINT lThigh
  {
    OFFSET 8.367 -8.2066 0.5982
    CHANNELS 3 Zrotation Xrotation Yrotation
    JOINT lShin
    {
      OFFSET 2.1923 -43.463 -0.4932
      CHANNELS 3 Zrotation Xrotation Yrotation
      JOINT lFoot
      {
        OFFSET 0.7333 -45.8593 -2.6451
        CHANNELS 3 Zrotation Xrotation Yrotation
        End Site
        {
          OFFSET 2.6618 -4.2699 12.3931
        }
      }
    }
  }
  JOINT rThigh
  {
    OFFSET -8.367 -8.2066 0.5982
    CHANNELS 3 Zrotation Xrotation Yrotation
    JOINT rShin
    {
      OFFSET -2.1923 -43.463 -0.4931
      CHANNELS 3 Zrotation Xrotation Yrotation
      JOINT rFoot
      {
        OFFSET -0.7333 -45.8593 -2.6451
        CHANNELS 3 Zrotation Xrotation Yrotation
        End Site
        {
          OFFSET -2.6618 -4.2699 12.3931
        }
      }
    }
  }
}
MOTION
Frames:	4
Frame Time:	0.0333333
-0.00406463 1.60945 -11.5443 -180 -89.9981 -180 -0.0986756 5.47923 -0.148262 -0.184305 10.9587 -0.288992 -0.184305 10.9587 -0.288992 -10.393 8.28522 0.925174 7.66791 -10.628 7.63485 -9.17726 3.25883 0.0455715 -61.786 3.7201 -19.7133 -11.1998 -0.402388 -46.0959 -1.71825 24.161 -7.30242 -1.57466e-006 1.88753e-006 3.34374e-007 -4.77083e-015 0 -0 2.64834e-031 -4.77083e-015 3.18055e-015 4.77083e-015 -9.54166e-015 3.18055e-015 -1.57466e-006 1.88753e-006 3.34374e-007 -4.77083e-015 6.36111e-015 3.18055e-015 1.59028e-015 4.77083e-015 3.18055e-015 -1.57466e-006 1.88753e-006 3.34374e-007 -4.77083e-015 6.36111e-015 3.18055e-015 1.59028e-015 4.77083e-015 3.18055e-015 4.77083e-015 -9.54166e-015 3.18055e-015 -1.57466e-006 1.88753e-006 3.34374e-007 -4.77083e-015 6.36111e-015 3.18055e-015 1.59028e-015 4.77083e-015 3.18055e-015 -1.57466e-006 1.88753e-006 3.34374e-007 -4.77083e-015 6.36111e-015 3.18055e-015 1.59028e-015 4.77083e-015 3.18055e-015 10.7045 4.17328 0.970815 61.679 3.70576 20.5792 9.17379 -3.56718 43.6296 -0.125716 25.1492 8.5425 1.44934e-006 7.77869e-008 4.50789e-006 -2.64834e-031 -4.77083e-015 -3.18055e-015 -2.23011e-006 1.16646e-006 -3.65771e-006 4.77083e-015 0 3.18055e-015 1.44934e-006 7.77869e-008 4.50789e-006 -3.18055e-015 -9.54166e-015 -3.18055e-015 -2.23011e-006 1.16646e-006 -3.65771e-006 1.44934e-006 7.77869e-008 4.50789e-006 -3.18055e-015 -9.54166e-015 -3.18055e-015 -2.23011e-006 1.16646e-006 -3.65771e-006 4.77083e-015 0 3.18055e-015 1.44934e-006 7.77869e-008 4.50789e-006 -3.18055e-015 -9.54166e-015 -3.18055e-015 -2.23011e-006 1.16646e-006 -3.65771e-006 1.44934e-006 7.77869e-008 4.50789e-006 -3.18055e-015 -9.54166e-015 -3.18055e-015 -2.23011e-006 1.16646e-006 -3.65771e-006 -6.83739 -1.0409 -10.4693 1.91476 10.8996 0.494947 5.07392 14.8728 12.4808 6.86935 -1.40021 7.35977 -2.6104 11.2024 -0.338014 -5.40893 15.0547 -9.38514 
-0.00406463 1.60945 -11.5443 -180 -89.9981 -180 -0.0984517 5.42556 -0.148357 -0.183964 10.8514 -0.289261 -0.183964 10.8514 -0.289261 -10.3251 8.35107 0.92543 7.60714 -10.5014 7.57427 -9.16177 3.45667 0.194316 -61.9589 3.82609 -19.7281 -11.1998 -0.40239 -46.0959 -1.8839 24.2277 -6.70716 -1.59822e-006 9.16912e-007 -2.60764e-006 3.18055e-015 3.18055e-015 3.18055e-015 6.36111e-015 4.77083e-015 3.18055e-015 -0 0 3.18055e-015 -1.59822e-006 9.16912e-007 -2.60764e-006 6.36111e-015 0 -0 3.18055e-015 6.36111e-015 -3.18055e-015 -1.59822e-006 9.16912e-007 -2.60764e-006 6.36111e-015 0 -0 3.18055e-015 6.36111e-015 -3.18055e-015 -0 0 3.18055e-015 -1.59822e-006 9.16912e-007 -2.60764e-006 6.36111e-015 0 -0 3.18055e-015 6.36111e-015 -3.18055e-015 -1.59822e-006 9.16912e-007 -2.60764e-006 6.36111e-015 0 -0 3.18055e-015 6.36111e-015 -3.18055e-015 10.5795 4.29537 0.754017 61.8729 3.82751 20.5824 9.23569 -3.44724 43.7486 0.153644 25.1993 7.87425 -2.49451e-006 -2.64061e-006 3.2952e-006 -1.58518e-006 -2.36677e-006 3.90486e-006 -3.91977e-007 6.21764e-007 4.23617e-007 4.77083e-015 -6.36111e-015 -3.18055e-015 -2.49451e-006 -2.64061e-006 3.2952e-006 -1.58518e-006 -2.36677e-006 3.90486e-006 -3.91977e-007 6.21764e-007 4.23617e-007 -2.49451e-006 -2.64061e-006 3.2952e-006 -1.58518e-006 -2.36677e-006 3.90486e-006 -3.91977e-007 6.21764e-007 4.23617e-007 4.77083e-015 -6.36111e-015 -3.18055e-015 -2.49451e-006 -2.64061e-006 3.2952e-006 -1.58518e-006 -2.36677e-006 3.90486e-006 -3.91977e-007 6.21764e-007 4.23617e-007 -2.49451e-006 -2.64061e-006 3.2952e-006 -1.58518e-006 -2.36677e-006 3.90486e-006 -3.91977e-007 6.21764e-007 4.23617e-007 -6.83739 -1.0409 -10.4693 1.91476 10.8996 0.494947 5.07392 14.8728 12.4808 6.86935 -1.40021 7.35977 -2.6104 11.2024 -0.338014 -5.40893 15.0547 -9.38514 
-0.00406463 1.60945 -11.5443 -180 -89.9981 -180 -0.0982263 5.37195 -0.148455 -0.183619 10.7441 -0.289534 -0.183619 10.7441 -0.289534 -10.2575 8.41642 0.925742 7.54651 -10.3747 7.51383 -9.14679 3.65448 0.343027 -62.1317 3.93212 -19.7425 -11.1998 -0.402371 -46.0959 -2.0504 24.2929 -6.11142 3.75677e-007 6.44786e-007 -4.0248e-007 3.92782e-006 -2.47602e-006 -1.65212e-006 3.75677e-007 6.44786e-007 -4.0248e-007 -1.59028e-015 -9.54166e-015 9.54166e-015 3.75677e-007 6.44786e-007 -4.0248e-007 3.92782e-006 -2.47602e-006 -1.65212e-006 3.75677e-007 6.44786e-007 -4.0248e-007 3.75677e-007 6.44786e-007 -4.0248e-007 3.92782e-006 -2.47602e-006 -1.65212e-006 3.75677e-007 6.44786e-007 -4.0248e-007 -1.59028e-015 -9.54166e-015 9.54166e-015 3.75677e-007 6.44786e-007 -4.0248e-007 3.92782e-006 -2.47602e-006 -1.65212e-006 3.75677e-007 6.44786e-007 -4.0248e-007 3.75677e-007 6.44786e-007 -4.0248e-007 3.92782e-006 -2.47602e-006 -1.65212e-006 3.75677e-007 6.44786e-007 -4.0248e-007 10.455 4.4179 0.537464 62.0669 3.94928 20.5848 9.2973 -3.32717 43.8674 0.433697 25.2465 7.20553 -1.18069e-006 1.8642e-006 1.26642e-006 -3.18055e-015 -1.59028e-015 -3.18055e-015 6.90367e-010 -2.13431e-006 5.81548e-006 -0 0 3.18055e-015 -1.18069e-006 1.8642e-006 1.26642e-006 4.77083e-015 4.77083e-015 -0 6.90362e-010 -2.13431e-006 5.81548e-006 -1.18069e-006 1.8642e-006 1.26642e-006 4.77083e-015 4.77083e-015 -0 6.90362e-010 -2.13431e-006 5.81548e-006 -0 0 3.18055e-015 -1.18069e-006 1.8642e-006 1.26642e-006 4.77083e-015 4.77083e-015 -0 6.90362e-010 -2.13431e-006 5.81548e-006 -1.18069e-006 1.8642e-006 1.26642e-006 4.77083e-015 4.77083e-015 -0 6.90362e-010 -2.13431e-006 5.81548e-006 -6.83739 -1.0409 -10.4693 1.91476 10.8996 0.494947 5.07392 14.8728 12.4808 6.86935 -1.40021 7.35977 -2.6104 11.2024 -0.338014 -5.40893 15.0547 -9.38514 
-0.00406463 1.60945 -11.5443 -180 -89.9981 -180 -0.0979995 5.31836 -0.148554 -0.183273 10.6369 -0.289813 -0.183273 10.6369 -0.289813 -10.1896 8.48179 0.926005 7.48604 -10.2479 7.45354 -9.13231 3.85235 0.491721 -62.3046 4.0382 -19.7566 -11.1998 -0.402378 -46.0959 -2.21765 24.3565 -5.51523 -3.41165e-008 -9.61937e-007 -2.97656e-006 6.36111e-015 4.77083e-015 -0 2.9188e-006 -1.8293e-006 -3.7899e-006 3.18055e-015 0 3.18055e-015 -3.41165e-008 -9.61937e-007 -2.97656e-006 4.77083e-015 7.95139e-015 -3.18055e-015 2.9188e-006 -1.8293e-006 -3.7899e-006 -3.41165e-008 -9.61937e-007 -2.97656e-006 4.77083e-015 7.95139e-015 -3.18055e-015 2.9188e-006 -1.8293e-006 -3.7899e-006 3.18055e-015 0 3.18055e-015 -3.41165e-008 -9.61937e-007 -2.97656e-006 4.77083e-015 7.95139e-015 -3.18055e-015 2.9188e-006 -1.8293e-006 -3.7899e-006 -3.41165e-008 -9.61937e-007 -2.97656e-006 4.77083e-015 7.95139e-015 -3.18055e-015 2.9188e-006 -1.8293e-006 -3.7899e-006 10.3309 4.5409 0.321146 62.2609 4.07106 20.587 9.35868 -3.20701 43.9861 0.714419 25.2908 6.53642 3.84309e-006 1.71516e-006 4.24138e-006 -1.26813e-006 3.33451e-007 -2.38955e-007 1.69384e-006 2.82262e-006 4.38038e-007 1.59028e-015 -1.59028e-015 -0 3.84309e-006 1.71516e-006 4.24138e-006 -1.26813e-006 3.33451e-007 -2.38955e-007 1.69384e-006 2.82262e-006 4.38038e-007 3.84309e-006 1.71516e-006 4.24138e-006 -1.26813e-006 3.33451e-007 -2.38955e-007 1.69384e-006 2.82262e-006 4.38038e-007 1.59028e-015 -1.59028e-015 -0 3.84309e-006 1.71516e-006 4.24138e-006 -1.26813e-006 3.33451e-007 -2.38955e-007 1.69384e-006 2.82262e-006 4.38038e-007 3.84309e-006 1.71516e-006 4.24138e-006 -1.26813e-006 3.33451e-007 -2.38955e-007 1.69384e-006 2.82262e-006 4.38038e-007 -6.83739 -1.0409 -10.4693 1.91476 10.8996 0.494947 5.07392 14.8728 12.4808 6.86935 -1.40021 7.35977 -2.6104 11.2024 -0.338014 -5.40893 15.0547 -9.38514 
